# xmcd CD database file
#
# Track frame offsets:
#	150
#	11740
#	25768
#	39414
#	51569
#	66229
#	80781
#	94180
#	108961
#	122462
#	136803
#	151296
#	163574
#	176216
#	190216
#	202459
#	215574
#	230520
#	241023
#	254254
#	268384
#
# Disc length: 3762 seconds
#
# Revision: 4
# Processed by: cddbd v1.5.2PL0 Copyright (c) Steve Scherf et al.
# Submitted via: CDex 1.51
#
DISCID=320eb015
DTITLE=Various Artist - 50 ans de grandes voix françaises  [CD 4-6]  Enregistrements d'origine 78 tours remasterisés
DYEAR=2001
DGENRE=Chants
TTITLE0=Luis mariano - La belle de Cadix
TTITLE1=Luis mariano - Andalousie
TTITLE2=Georges Guétary - Farandole
TTITLE3=Georges Guétary - Ma prière
TTITLE4=André Dassary - L'auberge qui chante
TTITLE5=André Dassary - L'amour qu'un jour tu m'a donné
TTITLE6=Henri Garat - Ninon, ne me dites pas non
TTITLE7=Henri Garat - Amusez-vous
TTITLE8=Robert Burnier - O ma Rose-Marie
TTITLE9=Robert Burnier - Chant indien
TTITLE10=José Janson - Je t'ai donné mon coeur
TTITLE11=André Baugé - Ah combien perfides sont les femmes
TTITLE12=André Baugé - La marche de Nini Rosa
TTITLE13=Georges Milton - Adieu mon petit officier
TTITLE14=Georges Milton - Au joyeux Tyrol
TTITLE15=Alibert - Adieu Venise Provençale
TTITLE16=Alibert - Vous avez l'éclat de la rose
TTITLE17=Roger Bourdin - En amour il n'est pas de grade
TTITLE18=Roger Bourdin - Rose de france
TTITLE19=Robert Jysor - Les envoyés du paradis
TTITLE20=Robert Jysor - J'ai fait trois fois le tour du monde
EXTD=YEAR: 2001
EXTT0=
EXTT1=
EXTT2=
EXTT3=
EXTT4=
EXTT5=
EXTT6=
EXTT7=
EXTT8=
EXTT9=
EXTT10=
EXTT11=
EXTT12=
EXTT13=
EXTT14=
EXTT15=
EXTT16=
EXTT17=
EXTT18=
EXTT19=
EXTT20=
PLAYORDER=
